<?xml version="1.0" standalone="no"?>
<!DOCTYPE svg PUBLIC "-//W3C//DTD SVG 20010904//EN"
 "http://www.w3.org/TR/2001/REC-SVG-20010904/DTD/svg10.dtd">
<svg version="1.0" xmlns="http://www.w3.org/2000/svg"
 width="500.000000pt" height="100.000000pt" viewBox="0 0 500.000000 100.000000"
 preserveAspectRatio="xMidYMid meet">

<g transform="translate(0.000000,100.000000) scale(0.100000,-0.100000)"
fill="#000000" stroke="none">
<path d="M1338 728 c-4 -118 -4 -341 0 -400 l5 -68 43 0 44 0 0 119 c0 105 2
121 21 145 15 19 30 26 53 26 58 0 66 -20 66 -163 l0 -127 45 0 45 0 0 135 c0
154 -11 195 -59 219 -44 23 -93 20 -134 -8 l-36 -25 -3 92 -3 92 -42 3 -43 3
-2 -43z"/>
<path d="M1760 541 c0 -212 1 -230 20 -254 20 -26 75 -42 104 -31 10 4 16 18
16 39 0 27 -4 34 -22 37 -23 3 -23 3 -26 221 l-2 217 -45 0 -45 0 0 -229z"/>
<path d="M2870 735 c-96 -30 -144 -111 -144 -241 0 -136 54 -216 161 -239 44
-9 108 11 131 40 26 32 32 31 32 -5 0 -29 2 -30 45 -30 l46 0 -3 133 -3 132
-102 3 -103 3 0 -41 0 -40 55 0 c55 0 55 0 55 -31 0 -46 -16 -67 -59 -79 -49
-13 -106 4 -134 41 -28 39 -35 146 -12 204 19 51 45 72 90 76 61 4 84 -2 111
-30 l27 -29 33 20 c19 11 34 25 34 32 0 23 -57 67 -105 82 -59 17 -96 17 -155
-1z"/>
<path d="M337 508 c29 -127 53 -235 53 -240 0 -4 25 -8 55 -8 l54 0 10 38 c5
20 22 84 36 142 15 57 30 110 34 118 4 8 18 -28 35 -90 15 -57 34 -127 42
-155 l15 -53 53 0 52 0 52 228 c29 125 52 233 52 240 0 8 -15 12 -43 12 l-43
0 -33 -159 c-19 -88 -37 -164 -41 -170 -3 -7 -26 65 -50 159 l-43 170 -42 0
-42 0 -12 -52 c-37 -164 -75 -290 -81 -272 -4 10 -22 88 -40 172 l-33 152 -47
0 -47 0 54 -232z"/>
<path d="M2232 557 c4 -203 12 -230 76 -273 60 -41 193 -39 251 3 54 40 61 71
61 271 l0 182 -45 0 -45 0 0 -175 c0 -173 0 -176 -25 -200 -35 -36 -115 -36
-150 0 -25 24 -25 27 -25 200 l0 175 -51 0 -51 0 4 -183z"/>
<path d="M3510 500 l0 -240 40 0 40 0 0 155 c0 85 4 155 8 155 5 0 33 -70 62
-155 l54 -156 40 3 41 3 55 159 55 159 3 -161 2 -162 45 0 45 0 0 240 0 240
-59 0 -59 0 -57 -167 c-32 -93 -61 -172 -65 -176 -4 -4 -34 70 -67 165 l-60
173 -61 3 -62 3 0 -241z"/>
<path d="M4555 700 c-38 -5 -40 -7 -43 -42 -3 -33 -7 -38 -28 -38 -21 0 -24
-5 -24 -35 0 -31 3 -35 25 -35 25 0 25 -1 25 -87 0 -142 24 -194 96 -207 35
-7 114 9 114 23 0 4 -5 22 -11 38 -10 29 -12 30 -40 20 -49 -19 -63 6 -67 118
l-4 95 56 0 56 0 0 34 0 35 -52 3 -53 3 -5 40 -5 40 -40 -5z"/>
<path d="M1017 616 c-37 -13 -77 -42 -77 -55 0 -3 9 -17 19 -30 l18 -24 33 23
c38 27 106 32 120 10 21 -33 3 -49 -76 -67 -87 -20 -124 -53 -124 -112 0 -31
7 -49 29 -73 25 -28 35 -32 80 -32 41 0 56 5 78 26 l28 26 18 -24 c14 -19 27
-24 62 -24 45 0 45 0 45 35 0 28 -4 35 -20 35 -19 0 -20 7 -21 98 0 53 -5 113
-12 132 -21 62 -111 87 -200 56z m109 -262 c-33 -49 -106 -39 -106 16 0 34 5
38 68 53 l47 12 3 -28 c2 -16 -4 -39 -12 -53z"/>
<path d="M4185 618 c-16 -6 -42 -20 -57 -30 -22 -15 -26 -23 -18 -36 25 -44
24 -44 79 -16 60 31 104 26 109 -13 4 -26 -14 -37 -90 -52 -94 -20 -134 -75
-106 -149 26 -71 128 -93 183 -38 l22 22 21 -23 c18 -20 30 -24 64 -21 39 3
43 6 46 30 3 22 -2 30 -22 38 -26 9 -26 11 -26 112 0 62 -5 113 -13 128 -25
51 -118 74 -192 48z m115 -230 c-12 -65 -67 -90 -105 -48 -29 32 -8 65 52 83
26 7 51 12 54 11 4 -2 3 -23 -1 -46z"/>
<path d="M1942 493 l3 -38 100 0 100 0 0 38 1 37 -104 0 -103 0 3 -37z"/>
<path d="M3212 493 l3 -38 100 0 100 0 3 38 3 37 -106 0 -106 0 3 -37z"/>
</g>
</svg>
