<?xml version="1.0" standalone="no"?>
<!DOCTYPE svg PUBLIC "-//W3C//DTD SVG 20010904//EN"
 "http://www.w3.org/TR/2001/REC-SVG-20010904/DTD/svg10.dtd">
<svg version="1.0" xmlns="http://www.w3.org/2000/svg"
 width="500.000000pt" height="100.000000pt" viewBox="0 0 500.000000 100.000000"
 preserveAspectRatio="xMidYMid meet">
<metadata>
Created by potrace 1.16, written by Peter Selinger 2001-2019
</metadata>
<g transform="translate(0.000000,100.000000) scale(0.100000,-0.100000)"
fill="#000000" stroke="none">
<path d="M1580 505 l0 -255 50 0 50 0 0 116 c0 114 0 116 29 145 32 32 57 36
87 15 17 -13 19 -27 19 -145 l0 -131 53 0 52 0 0 109 c0 208 -24 261 -121 261
-51 0 -103 -20 -112 -42 -3 -7 -6 31 -6 85 l-1 97 -50 0 -50 0 0 -255z"/>
<path d="M2000 545 c0 -277 10 -305 109 -305 47 0 55 10 47 55 -5 25 -13 35
-29 37 -22 3 -22 5 -25 216 l-2 212 -50 0 -50 0 0 -215z"/>
<path d="M792 723 c-5 -10 -26 -88 -48 -173 -21 -85 -40 -148 -42 -140 -1 8
-17 83 -35 165 l-33 150 -52 3 c-50 3 -52 2 -47 -20 3 -13 23 -104 46 -203 22
-99 44 -197 50 -217 l10 -38 57 0 58 0 28 118 c51 206 45 204 91 32 l40 -151
59 3 59 3 53 230 c29 127 53 235 54 241 0 8 -17 11 -47 9 -57 -4 -53 3 -89
-170 -14 -72 -30 -136 -33 -143 -4 -7 -25 56 -46 140 -21 84 -42 159 -48 166
-15 19 -75 15 -85 -5z"/>
<path d="M2487 733 c-4 -3 -7 -86 -7 -183 0 -162 2 -179 23 -220 30 -61 87
-90 177 -90 90 0 147 29 178 90 21 43 22 55 20 225 l-3 179 -47 3 -47 3 -3
-181 -3 -181 -28 -24 c-38 -33 -96 -33 -134 0 l-28 24 -3 181 -3 181 -43 0
c-23 0 -46 -3 -49 -7z"/>
<path d="M3257 734 c-4 -4 -7 -115 -7 -246 l0 -238 50 0 50 0 1 153 0 152 53
-150 54 -150 45 -3 45 -3 26 73 c14 40 39 111 55 158 l29 85 1 -157 1 -158 50
0 50 0 -2 243 -3 242 -64 0 -64 0 -52 -156 c-29 -86 -57 -164 -62 -173 -6 -11
-25 31 -68 157 l-60 172 -60 3 c-34 2 -64 0 -68 -4z"/>
<path d="M4288 693 c-24 -4 -28 -9 -28 -39 0 -31 -2 -34 -30 -34 -28 0 -30 -2
-30 -40 0 -38 2 -40 29 -40 l29 0 4 -120 c3 -115 4 -121 31 -147 24 -25 35
-28 92 -28 77 0 92 11 79 57 -9 31 -12 33 -48 30 -25 -3 -42 1 -47 10 -5 7 -9
55 -9 106 l0 92 50 0 50 0 0 40 0 40 -50 0 -50 0 0 40 c0 43 -1 44 -72 33z"/>
<path d="M1245 603 c-67 -35 -71 -46 -33 -96 14 -18 16 -18 53 7 53 36 110 34
110 -4 0 -23 -7 -27 -69 -42 -85 -20 -118 -44 -129 -91 -11 -45 15 -105 53
-124 43 -22 105 -16 138 12 25 21 31 22 36 10 8 -22 56 -37 93 -30 26 5 33 11
33 30 0 36 -10 55 -31 55 -17 0 -19 9 -19 105 0 116 -10 149 -51 171 -38 19
-146 18 -184 -3z"/>
<path d="M3902 599 c-49 -25 -58 -39 -43 -66 26 -46 26 -46 66 -19 42 29 96
34 115 11 19 -23 -3 -42 -62 -55 -102 -21 -138 -53 -138 -120 0 -67 45 -110
115 -110 39 0 95 24 95 41 0 6 14 -1 31 -15 31 -27 47 -30 87 -20 18 5 22 13
22 45 0 32 -3 39 -20 39 -18 0 -20 7 -20 88 0 162 -22 195 -133 200 -59 2 -80
-1 -115 -19z"/>
<path d="M2190 485 l0 -45 105 0 105 0 0 45 0 45 -105 0 -105 0 0 -45z"/>
<path d="M2960 485 l0 -45 105 0 105 0 0 45 0 45 -105 0 -105 0 0 -45z"/>
</g>
</svg>
